<svg xmlns="http://www.w3.org/2000/svg" viewBox="0 0 860 520" font-family="ui-sans-serif, system-ui, sans-serif" font-size="13">
  <style>
    .box { fill: #ffffff; stroke: #1f2937; stroke-width: 1.5; rx: 8; }
    .title { font-weight: 700; font-size: 14px; fill: #111827; }
    .sub { fill: #4b5563; font-size: 12px; }
    .accent { fill: #eef2ff; stroke: #6366f1; }
    .provider { fill: #ecfdf5; stroke: #10b981; }
    .mw { fill: #fef3c7; stroke: #d97706; }
    .edge { stroke: #4b5563; stroke-width: 1.2; fill: none; marker-end: url(#arr); }
    .dotted { stroke-dasharray: 4 4; }
    .label { fill: #6b7280; font-size: 11px; }
  </style>
  <defs>
    <marker id="arr" viewBox="0 0 10 10" refX="9" refY="5" markerWidth="8" markerHeight="8" orient="auto-start-reverse">
      <path d="M0,0 L10,5 L0,10 z" fill="#4b5563"/>
    </marker>
  </defs>

  <text x="20" y="28" class="title" font-size="18">llmgate — architecture</text>
  <text x="20" y="48" class="sub">One Client interface. Middlewares compose. Providers plug in via langchaingo.</text>

  <!-- Caller -->
  <rect x="40" y="80" width="160" height="60" class="box accent"/>
  <text x="120" y="105" text-anchor="middle" class="title">Your code</text>
  <text x="120" y="124" text-anchor="middle" class="sub">client.Complete(ctx, req)</text>

  <!-- Middleware stack -->
  <rect x="260" y="80" width="200" height="60" class="box mw"/>
  <text x="360" y="105" text-anchor="middle" class="title">WithRetries</text>
  <text x="360" y="124" text-anchor="middle" class="sub">backoff + jitter + classify</text>

  <rect x="260" y="160" width="200" height="60" class="box mw"/>
  <text x="360" y="185" text-anchor="middle" class="title">WithBudget</text>
  <text x="360" y="204" text-anchor="middle" class="sub">daily/total USD cap</text>

  <rect x="260" y="240" width="200" height="60" class="box mw"/>
  <text x="360" y="265" text-anchor="middle" class="title">WithCache</text>
  <text x="360" y="284" text-anchor="middle" class="sub">LRU + TTL, FromCache=true</text>

  <!-- Router -->
  <rect x="520" y="80" width="180" height="220" class="box accent"/>
  <text x="610" y="105" text-anchor="middle" class="title">Router (optional)</text>
  <text x="610" y="124" text-anchor="middle" class="sub">ordered clients</text>
  <text x="610" y="140" text-anchor="middle" class="sub">fallback policy</text>
  <line x1="540" y1="150" x2="680" y2="150" class="edge dotted"/>
  <text x="610" y="170" text-anchor="middle" class="sub">OnRateLimit</text>
  <text x="610" y="188" text-anchor="middle" class="sub">OnTransient</text>
  <text x="610" y="220" text-anchor="middle" class="label">(compose with retries / budget / cache)</text>

  <!-- Adapter -->
  <rect x="260" y="340" width="200" height="60" class="box"/>
  <text x="360" y="365" text-anchor="middle" class="title">adapter (private)</text>
  <text x="360" y="384" text-anchor="middle" class="sub">langchaingo llms.Model</text>

  <!-- Providers -->
  <rect x="40" y="430" width="160" height="60" class="box provider"/>
  <text x="120" y="455" text-anchor="middle" class="title">Anthropic</text>
  <text x="120" y="474" text-anchor="middle" class="sub">claude-sonnet-4-5</text>

  <rect x="260" y="430" width="200" height="60" class="box provider"/>
  <text x="360" y="455" text-anchor="middle" class="title">OpenAI</text>
  <text x="360" y="474" text-anchor="middle" class="sub">gpt-4o / 4.1 / o3 / o4-mini</text>

  <rect x="500" y="430" width="200" height="60" class="box provider"/>
  <text x="600" y="455" text-anchor="middle" class="title">Google</text>
  <text x="600" y="474" text-anchor="middle" class="sub">gemini-2.5-flash / pro</text>

  <!-- Edges -->
  <path d="M200,110 L260,110" class="edge"/>
  <path d="M360,140 L360,160" class="edge"/>
  <path d="M360,220 L360,240" class="edge"/>
  <path d="M360,300 L360,340" class="edge"/>
  <path d="M460,110 L520,190" class="edge dotted"/>
  <path d="M610,300 L430,340" class="edge dotted"/>
  <path d="M320,400 L150,430" class="edge"/>
  <path d="M360,400 L360,430" class="edge"/>
  <path d="M400,400 L570,430" class="edge"/>

  <text x="480" y="100" class="label">alt. path</text>
  <text x="480" y="325" class="label">via adapter</text>
</svg>
